<svg xmlns="http://www.w3.org/2000/svg" xmlns:xlink="http://www.w3.org/1999/xlink" xml:space="preserve" id="Camada_1" x="0" y="0" version="1.1" viewBox="0 0 262.2 299"><style>.st2{fill:#012442}.st3{fill:#ffbb71}.st5{fill:#fff}</style><circle cx="131.2" cy="174.6" r="123.3" style="fill:#e02d5c"/><defs><circle id="SVGID_1_" cx="130.9" cy="174.6" r="123.3"/></defs><clipPath id="SVGID_2_"><use xlink:href="#SVGID_1_" style="overflow:visible"/></clipPath><g style="clip-path:url(#SVGID_2_)"><path d="M223.2 300.2c-12.5 0-23.7-7.9-26.6-19.4-9.3-37.2-33-47.3-34-47.7.4.2.6.2.6.2l19.8-46.6c5.2 1.9 51.2 19.9 66.9 83 3.4 13.5-5.9 26.8-20.6 29.9-2 .4-4 .6-6.1.6" class="st2"/><path d="M224.4 292.1c-8.3 0-15.8-5.2-17.7-13-10.6-42.7-44.2-57.5-44.5-57.7-9.2-3.8-13.3-13.6-9.2-22s14.9-12.1 24.1-8.4c2 .8 50.3 21.2 65.1 80.7 2.2 9-3.9 17.9-13.7 19.9-1.3.3-2.7.5-4.1.5" class="st3"/><path d="M40.7 301c-2 0-4.1-.2-6.1-.6-14.7-3.1-23.9-16.5-20.6-29.9 15.7-63.1 65.7-84.7 70.8-86.6l19.8 46.6c-1.2 1.1-2.3 2.2-3.3 3.4-1 .4-24.8 10.5-34 47.7-2.9 11.5-14.2 19.4-26.6 19.4" class="st2"/><path d="M39.4 292.9c-1.4 0-2.7-.1-4.1-.4-9.8-2-16-11-13.7-19.9 14.8-59.4 64.9-80.7 66.9-81.5l20.3 26.9.3.3c-1.4.6-41.4 19.1-52 61.7-1.8 7.7-9.3 12.9-17.7 12.9" class="st3"/><path id="peito" d="M203.9 297.8s7.6-85.6-43.8-112.2l-56.4 2.2c-45.1 15.9-42.6 110-42.6 110z" class="st3"/><path d="M69.4 248.9c-1.7-1-3.9-.5-4.9 1.2-.2.3-.3.6-.4.9-2.8 10.7-5.1 25.2-5.1 44 .1 1.9 1.7 3.4 3.6 3.3 1.9.1 3.6-1.4 3.6-3.3 0-18 2.2-32 4.9-42.2.4-1.5-.3-3.2-1.7-3.9M197.6 248.9c-1.5.8-2.2 2.5-1.8 4.1 2.6 10.2 4.8 24.1 4.9 42.2.1 1.9 1.7 3.4 3.6 3.3 1.9.1 3.6-1.4 3.6-3.3 0-18.8-2.3-33.3-5.1-44-.5-1.9-2.5-3.1-4.4-2.6-.2 0-.5.1-.8.3" class="st2"/></g><path d="M118.6 13.2h30.1c53.1 0 96.1 43 96.1 96.1v23.9c0 61.4-49.8 111.1-111.1 111.1-61.4 0-111.1-49.8-111.1-111.1v-23.9c-.1-53.1 42.9-96.1 96-96.1" style="fill:#1a5faa"/><ellipse cx="74.9" cy="117.4" class="st5" rx="24.4" ry="41.8" transform="rotate(-52.922 74.934 117.385)"/><path d="M164.8 31.9s-3.7 17.7-.4 28.5c0 0 8.2-3.6 21.4-4.7-.7-5-1.7-14.9.1-20.8 6.8 7.6 14 14.8 21.8 21.5 8.1 1.2 16.1 3.4 23.7 6.6 0 0 13.5 19.3 11 39.5s-81.2 5-81.2 5c-1.6-1.2-12-16.1-21-22.3-.1-.1-4.6-33.9 24.6-53.3M102.7 29.9s3.7 17.7.4 28.5c0 0-8.2-3.6-21.4-4.7.7-5 1.7-14.9-.1-20.8-6.8 7.6-14 14.8-21.8 21.5-8.1 1.2-16.1 3.4-23.7 6.6 0 0-13.5 19.3-11 39.5s81.2 5 81.2 5c1.7-1.2 12-16.1 21-22.3.1-.1 4.6-33.9-24.6-53.3" class="st5"/><path d="M162.6 140.3c8.1 10.8 29.2 8.5 47.2-5.1s25.9-33.3 17.8-44-29.2-11.5-47.2 2.1-25.9 36.3-17.8 47M190.5 160.4s15.3 14.1 10.6 38.7c0 0 17.6-15.3 15.3-32.9l18.8-43.4zM73.1 160.4s-15.3 14.1-10.6 38.7c0 0-17.6-15.3-15.3-32.9l-18.8-43.4z" class="st5"/><path d="M245.5 102.7v-.2c-.9-3.9-2.4-7.7-4.3-11.3-1.5-2.9-2.8-5.8-3.9-8.9l-.1-.3-.2-.2c-1-.8-25.1-20.3-41.6-17.2q-2.7.45-5.7.9c-15.6 2.1-33.2 4.4-44.7 55.7v.1l.1 3.3c-3.1-2.9-7.1-4.4-11.3-4.4h-.1c-5.3 0-10.2 2.6-13.3 6.9l-1.4 2c-4.5-42-20.3-63.3-45.8-61.5l-12.8 2C42.8 70.9 28 83.3 23.6 100.3c-.2.7-.4 1.5-.6 2.2l-.1.2 5 19.1v.1c9.8 23.4 29.4 39.2 48.8 39.2H97l-6.8 9.9c-3.1 3.4-4.9 7.8-4.9 12.5.1 3.9.9 7.7 2.1 11.3 3.6 11.2 11.5 20.7 23.5 28.3 9.8 6.2 24.8 6.2 25.4 6.2 19-.1 28.9-9.6 32.3-13.7 11.5-13.5 15-27 15.4-31q.15-1.05 0-2.1c-.3-4.6-2-8.9-4.7-12.6l-6.6-8.9h18.9c9.1 0 20-4.3 30-11.9 10.4-7.8 18.6-18.3 23.8-30.2l.1-.2zM134 136c1.2 0 2.4.6 3.1 1.6l11.1 15.4c1.3 1.7.9 4.2-.9 5.4-.7.5-1.4.7-2.3.7l-21.7.1c-2.1 0-3.9-1.7-3.9-3.9 0-.8.2-1.6.7-2.2l10.6-15.4c.8-1 2-1.7 3.3-1.7m89.5-32.9c.8 4.3.4 8.7-1 12.8-2.9 8.6-9.5 15-19.5 19.1l-.2.1c-2.4 1.7-5 2.9-7.9 3.6l-.2.1c-1.5.7-3 1.3-4.6 1.8-3.8 1.3-8 1.3-11.8-.1l-.2-.1-6.6.7c-1.8 0-3.4-1.1-4-2.9l-.1-.2-.2-.2c-2.6-2.4-3.4-6.1-2.2-9.3l.1-.4-.2-.4c-.3-.7-.5-1.3-.7-1.9-1.5-4.7-.7-11.4 2.1-16.2 1.6-2.8 4-5.1 6.7-6.8l.2-.1.1-.2c2-3 4.4-5.7 7.2-7.9l.1-.1c5.4-5.7 10.6-6.8 12-7.1l1.3.3.2-.1c8-2.2 15.7-1.3 21.1 2.4 1.2.8 2.3 1.8 3.3 2.9l.2.2.9.2h.2c2.7 0 4.8 2.2 4.8 4.8 0 .6-.1 1.3-.4 1.9l-1.1 2.6zM97 142l-20-3h-.2c-9.2 0-22.4-2-29.7-19.3l-3-19.5-.1-.2c-.3-.7.1-2 1-3.3 2.3-3.3 7.3-6.9 9.8-6.9l19.6-1.2c3.6.5 14.3 2.1 24.2 32.7 1.1 3.3 1 17.2-1.3 20.5 0 0-.1.1-.3.2" style="fill:#f9b800"/><path d="M133.6 248.3c-63.5 0-115.1-51.6-115.1-115.1v-23.9C18.5 54.1 63.4 9.2 118.6 9.2h30.1c55.2 0 100.1 44.9 100.1 100.1v23.9c-.1 63.5-51.7 115.1-115.2 115.1m-15-231.1c-50.8 0-92.1 41.3-92.1 92.1v23.9c0 59.1 48.1 107.1 107.1 107.1 59.1 0 107.1-48.1 107.1-107.1v-23.9c0-50.8-41.3-92.1-92.1-92.1z" class="st2"/><defs><path id="SVGID_3_" d="M133.1 211.9c13.9.1 26-9.3 29.5-22.7.7-3.2-1.3-6.3-4.4-7-.5-.1-1-.2-1.5-.1l-47.5.2c-3.2-.1-5.9 2.5-6 5.8 0 .5 0 1 .2 1.5 3.6 13.2 15.8 22.5 29.7 22.3"/></defs><clipPath id="SVGID_4_"><use xlink:href="#SVGID_3_" style="overflow:visible"/></clipPath><g style="clip-path:url(#SVGID_4_)"><defs><path id="SVGID_5_" d="M-505.8-241.8h1816.1V779.7H-505.8z"/></defs><clipPath id="SVGID_6_"><use xlink:href="#SVGID_5_" style="overflow:visible"/></clipPath><path d="M96.1 174.9h73.8V219H96.1z" class="st2" style="clip-path:url(#SVGID_6_)"/></g><defs><path id="SVGID_7_" d="M162.1 191c.6-1.9 1-3.8 1.2-5.8.2-2.2-1.5-4.2-3.7-4.4h-.4l-52.4.2c-2.2 0-4.1 1.8-4.1 4v.4c.2 2 .6 3.9 1.2 5.8z"/></defs><clipPath id="SVGID_8_"><use xlink:href="#SVGID_7_" style="overflow:visible"/></clipPath><g style="clip-path:url(#SVGID_8_)"><defs><path id="SVGID_9_" d="M-505.8-241.8h1816.1V779.7H-505.8z"/></defs><clipPath id="SVGID_10_"><use xlink:href="#SVGID_9_" style="overflow:visible"/></clipPath><path d="M95.6 173.7h74.8v24.6H95.6z" class="st5" style="clip-path:url(#SVGID_10_)"/></g><defs><path id="SVGID_11_" d="M134.3 212c-14 .1-19.9-6.8-19.9-6.8 4.7-3.3 11.8-5.4 19.9-5.4 7 0 14.7 1.5 19.3 4.1 0 0-5.2 8.1-19.3 8.1"/></defs><clipPath id="SVGID_12_"><use xlink:href="#SVGID_11_" style="overflow:visible"/></clipPath><g style="clip-path:url(#SVGID_12_)"><defs><path id="SVGID_13_" d="M-505.8-241.8h1816.1V779.7H-505.8z"/></defs><clipPath id="SVGID_14_"><use xlink:href="#SVGID_13_" style="overflow:visible"/></clipPath><g style="clip-path:url(#SVGID_14_)"><path d="M107.3 192.6h53.3V219h-53.3z" style="fill:#ef5b70"/></g></g><defs><path id="SVGID_15_" d="M159.2 180.8c2.2 0 4.1 1.7 4.1 4v.4c-.1 1.4-2.2 10.1-10.3 19.4-1.7 2-7.2 7.4-18.7 7.4-2.3 0-10.6-.6-15.3-3.4-6.8-4.2-12.5-9.8-15-17.4-.7-1.9-1.1-3.8-1.2-5.8-.1-2.3 1.7-4.3 4-4.4h.1zm.1-7.3-52.4.2c-6.4 0-11.6 5.2-11.6 11.6v.1c.1 2.8.7 5.5 1.6 8.2 2.8 8.4 8.8 15.5 18.1 21.2 7.3 4.5 18.8 4.6 19.3 4.6h.1c14.4 0 21.8-6.9 24.4-10 9-10.3 11.8-20.4 12-23.4.3-3.2-.8-6.3-2.9-8.6-2.4-2.6-5.5-3.9-8.6-3.9"/></defs><clipPath id="SVGID_16_"><use xlink:href="#SVGID_15_" style="overflow:visible"/></clipPath><g style="clip-path:url(#SVGID_16_)"><defs><path id="SVGID_17_" d="M-505.8-241.8h1816.1V779.7H-505.8z"/></defs><clipPath id="SVGID_18_"><use xlink:href="#SVGID_17_" style="overflow:visible"/></clipPath><path d="M88.1 166.4h89.7v59.9H88.1z" class="st2" style="clip-path:url(#SVGID_18_)"/></g><path d="M199.4 68.5c16.7 0 32.5 7.5 37.8 15.5 6 9.1 2.5 7.9 5.1 18.1 0 0 .9 53-52.8 57.3h-18.9l7.8 10.4c2.6 3.5 4.2 7.6 4.5 12 .1.6.1 1.3 0 1.9-.4 4-3.9 17.2-15.2 30.5-3.3 4-12.9 13.3-31.5 13.4-.7 0-15.4-.1-24.9-6.1-11.7-7.4-19.5-16.8-23-27.8-1.2-3.5-2-7.2-2.1-11 0-4.6 1.8-9 5.1-12.3l-.1-.1 7.6-11h-22c-18 0-36.8-14.4-46.9-38.5L25 102c1.7-6.8 1.5-13.4 6.1-17 11.2-9 25.2-14 39.6-14.1 2 0 3.1.1 3.1.1 26.6 3.6 34.7 12.3 44.4 58.3l2.9-2.2c2.9-4 7.5-6.4 12.5-6.5h.1c4.9 0 9.4 2.3 12.4 6.1l3.8 5.1c1-48.6 26.2-63.3 49.5-63.3m-14.8 76.9c5.6 0 10-.4 10-.4 33.2-7.2 35.4-39.9 35.4-39.9 1-7.6.6-11.1-7.9-17.4-6-4.2-13.2-6.5-20.6-6.5-3.5 0-6.9.5-10.3 1.5-17.8 5.3-27.3 17.2-30.4 52.6-.8 8.6 13.6 10.1 23.8 10.1m-101.8 0c9.9 0 23.7-1.5 23-9.7-3-34.1-12.2-45.5-29.3-50.6q-4.8-1.5-9.9-1.5c-7.1 0-14.1 2.2-19.9 6.3-8.2 6-8.6 9.4-7.6 16.7 0 0 2.1 31.5 34.1 38.4 0 0 4.2.4 9.6.4m38.8 19.3 25.4-.1c3.2 0 5.7-2.6 5.7-5.7 0-1.2-.4-2.4-1.1-3.4l-13-18c-1.9-2.6-5.4-3.1-8-1.3-.5.4-1 .8-1.3 1.4l-12.5 18.1c-1.8 2.6-1.2 6.2 1.4 8 1 .6 2.2 1 3.4 1m77.8-102.2c-10.4 0-25.4 2.6-37.5 15.3-9.1 9.5-14.8 22.9-17 40-3.4-2.1-7.3-3.1-11.2-3.2h-.2c-4.2.1-8.2 1.3-11.7 3.6-9.2-39-19.2-49.3-47.3-53.1h-.2c-.1 0-1.5-.2-3.7-.2-15.8.1-31.1 5.5-43.4 15.4-5.1 4.1-6.2 10.1-7.2 15.5-.3 1.6-.6 3.3-1 4.9l-.4 1.5.4 1.5 4.9 18.8.1.4.2.4c10.7 25.6 31.3 42.2 52.4 42.2h10.6l-1.1 1.6-.1.2c-3.8 4.3-6 9.8-6 15.5.1 4.4.9 8.8 2.4 12.9 4 12.3 12.6 22.8 25.5 30.9 10.8 6.8 26.4 7 28.1 7 21.1-.1 32.2-10.8 36.1-15.5 11.9-13.9 16-28.2 16.6-33.8.1-.9.1-1.9 0-2.8-.4-5.5-2.4-10.8-5.7-15.2l-.6-.9h7.4c30.6-2.4 44.9-19.7 51.5-33.7 4.4-9.3 6.7-19.5 6.9-29.8v-.7l-.2-.7c-.6-2.2-.9-4.4-1-6.7-.2-4.2-.8-6.9-4.9-13.2-6.7-10.3-25.1-18.1-42.7-18.1M166.7 136v-.2c3-34.1 11.5-43 26.2-47.3 2.8-.8 5.7-1.3 8.6-1.3 6 0 11.9 1.9 16.9 5.2l.1.1c6.4 4.7 6.3 6 5.5 11.8v.4c-.1 1.1-2.4 28.1-30.4 34.3-1 .1-4.7.4-9 .4-13.3 0-17.5-2.7-17.9-3.4m-92.6 3c-26.8-6-29-31.8-29.1-32.9v-.3c-.7-5.5-.8-6.7 5.2-11.2l.1-.1h.1c4.8-3.2 10.4-5 16.1-5 2.8 0 5.5.4 8.2 1.2 18.1 5.4 22.8 20.1 25 45.3v.1c-.6.9-4.9 3.1-17 3.1-4.1.2-7.6-.1-8.6-.2m48 19.6 11.9-17.3 12.4 17.2z" class="st2"/></svg>