<?xml version="1.0" encoding="UTF-8"?>
<svg id="Camada_1" xmlns="http://www.w3.org/2000/svg" xmlns:xlink="http://www.w3.org/1999/xlink" version="1.1" viewBox="0 0 262.2 299">
  <!-- Generator: Adobe Illustrator 29.1.0, SVG Export Plug-In . SVG Version: 2.1.0 Build 142)  -->
  <defs>
    <style>
      .st0, .st1, .st2, .st3, .st4, .st5, .st6, .st7 {
        fill: none;
      }

      .st8 {
        fill: #a85ae0;
      }

      .st9 {
        fill: #012442;
      }

      .st10 {
        fill: #bc7d53;
        opacity: .3;
      }

      .st1 {
        stroke-width: 4px;
      }

      .st1, .st2, .st3, .st4, .st5, .st6 {
        stroke-linecap: round;
        stroke-linejoin: round;
      }

      .st1, .st2, .st3, .st4, .st5, .st6, .st7 {
        stroke: #012442;
      }

      .st2 {
        stroke-width: 7.3px;
      }

      .st3 {
        stroke-width: 8px;
      }

      .st4 {
        stroke-width: 5.3px;
      }

      .st5 {
        stroke-width: 5px;
      }

      .st6 {
        stroke-width: 6px;
      }

      .st11 {
        fill: #3ec63e;
      }

      .st12 {
        fill: #074966;
      }

      .st13 {
        fill: #ffcea6;
      }

      .st14 {
        fill: #ffb000;
      }

      .st15 {
        fill: #812bcc;
      }

      .st16 {
        fill: #7b23d8;
      }

      .st17 {
        fill: #f90;
      }

      .st18 {
        fill: #1a991a;
      }

      .st19 {
        fill: #fff8f3;
      }

      .st20 {
        fill: #fff;
      }

      .st21 {
        fill: #a53eff;
      }

      .st22 {
        fill: #efb081;
      }

      .st7 {
        stroke-miterlimit: 10;
        stroke-width: 7.1px;
      }

      .st23 {
        fill: #d669ff;
      }

      .st24 {
        opacity: .7;
      }

      .st25 {
        fill: #75ea75;
      }

      .st26 {
        fill: #64dd64;
      }

      .st27 {
        fill: #f4ed00;
      }

      .st28 {
        fill: #ff8500;
      }

      .st29 {
        fill: #f9b800;
      }

      .st30 {
        clip-path: url(#clippath);
      }
    </style>
    <clipPath id="clippath">
      <circle class="st0" cx="130.8" cy="174.7" r="123.3"/>
    </clipPath>
  </defs>
  <g>
    <circle class="st29" cx="131.3" cy="174" r="123.3"/>
    <g class="st30">
      <g>
        <path class="st9" d="M218.1,300.3c-12.5,0-23.7-7.9-26.6-19.4-9.3-37.2-33-47.3-34-47.7.4.2.6.2.6.2l19.8-46.6c5.2,1.8,51.2,19.9,66.9,83,3.4,13.5-5.9,26.8-20.6,29.9-2,.4-4.1.6-6.1.6Z"/>
        <path class="st8" d="M219.3,292.2c-8.3,0-15.8-5.2-17.7-13-10.6-42.7-44.2-57.5-44.5-57.7-9.2-3.8-13.3-13.6-9.2-22,4.1-8.4,14.9-12.1,24.1-8.4,2,.8,50.3,21.2,65.1,80.7,2.2,9-3.9,17.9-13.7,19.9-1.4.3-2.7.4-4.1.4Z"/>
        <path class="st9" d="M35.5,301.1c-2,0-4.1-.2-6.1-.6-14.7-3.1-23.9-16.5-20.6-29.9,15.7-63.1,65.6-84.7,70.8-86.6l19.8,46.6s-3.7,3.5-3.4,3.4c-1,.4-24.8,10.5-34,47.7-2.9,11.6-14.1,19.4-26.6,19.4Z"/>
        <path class="st8" d="M34.3,293c-1.3,0-2.7-.1-4.1-.4-9.8-2-15.9-11-13.7-19.9,14.8-59.4,64.9-80.7,66.9-81.5l20.3,26.9.3.3c-1.4.6-41.4,19.1-52,61.7-1.9,7.7-9.4,13-17.7,13Z"/>
        <g id="peito">
          <path class="st8" d="M194.8,299.8s7.6-85.6-43.8-112.2l-56.4,2.2c-45.1,15.9-42.6,110.1-42.6,110.1h142.8Z"/>
        </g>
      </g>
      <path class="st15" d="M34.4,232.6c64.6,58.2,168.4,28,186.7,2.8-13.7-24.2-46.9-51-64.9-43.9-9.9-9.7-64.6,3.4-72.5-.3-2.6,1.9-21.1,2.7-49.4,41.3Z"/>
      <path class="st9" d="M64.3,249c-2.1-1.2-4.7-.1-5.3,2.2-2.8,10.7-5.1,25.2-5.1,44,0,1.8,1.6,3.3,3.6,3.3h0c2,0,3.6-1.5,3.6-3.3,0-18,2.2-32,4.9-42.2.4-1.6-.3-3.2-1.7-4s0,0,0,0Z"/>
      <path class="st9" d="M192.5,253c-1.5.8-2.2,2.5-1.8,4.1,2.6,10.2,4.8,24.1,4.8,42.2,0,1.8,1.6,3.3,3.6,3.3h0c2,0,3.6-1.5,3.6-3.3,0-18.8-2.3-33.3-5.1-44s-3.1-3.3-5.1-2.3,0,0,0,0Z"/>
    </g>
  </g>
  <g>
    <path class="st11" d="M101.5,78.8c-10-11.9-21.8-16.8-35.1-15.8-8,.6-16.8,3.2-23.8,10.3-3.7,3.9-6.3,8.7-5.1,14.1,1.6,7.1,7.2,14.2,13.3,18,1.7,1.1,3.8-.7,4.7-1.7-1.1,6.2-2.6,12.4-5.5,18,.6,4.1-5.7,7-8.3,2.8-.7-1.2-1.6-2.2-2.5-3-.3.7-.7,1.4-1.1,2.1-5.8,9.1-12.5,17.3-19.6,25.3,1.4,6.8,3.5,13.6,7.9,18.9,10,11.9,31.7,13.3,44,13.3s25.1-6.9,35.1-18.8c10.2-12.2,15.8-27.7,15.8-43.6s-9.6-27.4-19.8-39.6Z"/>
    <path class="st11" d="M227.7,117.9c-2.1-34.8-29-29.7-37.1-47.4-11.3-24.7-35.7-40.8-62.8-41.5h-.5c-27.1.8-51.5,12.8-62.8,37.5-8.1,17.7-19.4,18.4-29.3,52.9,0,0-6.7.3-13.8,11.9-.7,1.1-6.2,6.8-6.8,7.9-7.1,12.4-14,23.8-9.9,36.7,8.6,26.6,56.2,80.3,125.6,80.3h.6c71.5,0,114.6-46.6,123.3-73.2,8.7-26.7-26.4-65.2-26.4-65.2Z"/>
    <path class="st13" d="M218.1,191.3c-17.1,3.1-30.1,3.1-47.1.1-7-1.3-14-2.7-21-4-2-.4-3.9-.7-5.9-1-.3,0-.6-.1-.9-.2-.1,0-.2,0-.4,0-3.4-.3-6.8-.7-10.2-.8-3.7-.2-7.4-.1-11.1.1-.9,0-1.7.2-2.6.2-2.5.2,1.1-.2,1.2-.2-1.1-.3-3.7.7-4.9,1-6.5,1.5-12.8,3.7-19.1,5.7-15.1,4.9-30.1,7.4-45.8,4.5-15-2.8-28.7-13.3-39.1-24.3-2-2.1-3.9-4.3-5.8-6.6,0,2.6.4,7.3,1.3,10,8.6,26.6,56.2,80.3,125.6,80.3h.6c71.5,0,114.6-46.6,123.3-73.2.3-.8,1-13.3,1.2-14.1,0,0-9.5,17.1-39.2,22.4Z"/>
    <path class="st22" d="M131.5,235.4c-67.7,0-90.6-20.3-100.1-23.6-.9-.3-1.7-.6-2.6-.9,22,23,57.7,45.3,102.4,45.3h.6c48.2,0,83.5-21.2,104.1-43.2-3.1.8-44.4,22.3-104.4,22.3Z"/>
    <path class="st3" d="M89.4,67.1c-7.5-4.1-15.7-5.5-24.2-4.8-8,.6-16.8,3.2-23.8,10.3-3.7,3.9-7.3,11.7-6.1,17.1,1.6,7.1,7.2,14.2,13.3,18,2.8,1.8,7.3-5.6,5.6-3.7-1.1,6.3-2.7,12.6-5.6,18.3.6,4.1-3.7,6-6.3,1.8"/>
    <path class="st20" d="M89.8,31.8c3.2,0,3.2-5,0-5s-3.2,5,0,5h0Z"/>
    <path class="st19" d="M74,204.3c-8.9,0-19.2-3.3-28.5-6.2-8-2.5-18.6-9.4-19-9.7l3.3-5c.1,0,10.3,6.7,17.5,9,9.7,3.1,20.8,6.5,29,5.8,8.4-.8,17.3-2.7,25.9-4.6,10.1-2.2,19.6-4.3,27.6-4.3h4.7c10.5,0,25.9,2.4,42.1,5l6,1c10.2,1.6,19,2.6,30.9-.9,5.8-1.7,15.1-9,18.1-11.7l3.9,4.5c-.5.4-12.1,10.5-20.4,12.9-13,3.8-19.9,3.7-30.5,2l-18.6-2.6c-16-2.6-22.1-2.3-27.6-2.3h-2.7c-7.3,0-19.4.8-32.3,3.2-8.9,1.7-17.9,3-26.7,3.8-.9,0-1.9.1-2.9.1Z"/>
    <g>
      <path class="st18" d="M123.2,167.4c-6.6-11.6-12.7-14.2-17-11.8-5,2.8-4.7,12.2,8.4,11,0,.2.1,0,.3.1,2.9,3.9,7,2.3,8.3.7Z"/>
      <path class="st5" d="M121,166s-4.9-7.7-10.6-8.6-1.1,4.3,4.3,4.3"/>
    </g>
    <path class="st18" d="M38.9,133s-11.8,9.4-13.4,24.5c-1.1,9.7,28.9,19.3,50.7,7.1,21.8-12.2,17.8-34.9,17.8-34.9l-55,3.3Z"/>
    <path class="st11" d="M243.1,136.4c-1.4-1.5-2.9-3-4.5-4.5-.6-.6-1.3-1.2-2-1.7,0,0-.2-.1-.2-.2-5.6-4-9.1-9.5-9.8-15.6-2.9.6-5.7,2.5-7.7,5.8-2.6,4.3-8.9,1.4-8.3-2.8-2.9-5.6-4.4-11.8-5.5-18,.9,1.1,3,2.8,4.7,1.7,6.1-3.8,11.7-10.9,13.3-18,1.2-5.4-1.4-10.2-5.1-14.1-7-7-15.8-9.6-23.8-10.3-13.3-1-25.1,3.9-35.1,15.8-10.2,12.2-19.8,23.7-19.8,39.6s5.6,31.4,15.8,43.6c10,11.9,22.7,18.8,35.1,18.8s34-1.3,44-13.3c6.2-7.3,7.7-17.4,9.3-26.7-.1-.1-.2-.3-.4-.4Z"/>
    <path class="st3" d="M168,63.1c7.5-4.1,15.7-5.5,24.2-4.8,8,.6,16.8,3.2,23.8,10.3,3.7,3.9,7.3,11.7,6.1,17.1-1.6,7.1-7.2,14.2-13.3,18-2.8,1.8-7.3-5.6-5.6-3.7,1.1,6.3,2.7,12.6,5.6,18.3-.6,4.1,3.7,6,6.3,1.8"/>
    <path class="st18" d="M223.9,129.7s9.1,12.3,13.4,24.5c3.3,9.2-29.9,19.3-51.7,7.1-21.8-12.2-17.8-34.9-17.8-34.9l56,3.3Z"/>
    <path class="st18" d="M196.7,72.5c0-20.7-53.9-24.3-65.5-23.6-12.8.1-64.9,3-64.9,23.6s8.3,31.4,62.5,32.1h5.4c54.2-.8,62.5-25.1,62.5-32.1Z"/>
    <path class="st3" d="M225.4,113.7s30.9,39.4,30.9,61.3c0,14.6-30.9,68-106.7,77.4-6.2.8-12.5,1.1-18.8,1.1h0c-9.6,0-19.2-.8-28.7-2.6C32.9,237.9,6.2,183.8,6.2,169.8c0-21.9,26.8-52.3,26.8-52.3"/>
    <path class="st26" d="M61.7,195.2c.9,2.3,37.2-10.7,46.5-14.5,16-6.5,33.9-4.8,44.9-2.1s40.8,15,54.4,15.9c0,0-56.2-8.2-77.8-8.2s-61,12.1-61,12.1"/>
    <path class="st6" d="M109.9,82.8s10.7,13.1,12.9,28.3"/>
    <path class="st6" d="M151.8,82.8s-10.4,14.2-13.3,28.7"/>
    <g>
      <path class="st21" d="M194.3,59.2c0-21-54.7-24.7-66.5-24-12.9.1-65.9,3-65.9,24s8.4,31.8,63.5,32.6h5.5c55.1-.8,63.5-25.5,63.5-32.6Z"/>
      <path class="st23" d="M193.6,53c-2.5,9.6-15.1,30.5-62.9,31.1h-5.5c-46.6-.7-59.8-20.8-62.7-30.5-.3,1.1-.5,2.2-.5,3.4,0,6.8,8.4,31.8,63.5,32.6h5.5c55.1-.8,63.5-25.5,63.5-32.6s-.3-2.8-.7-4.1Z"/>
      <path class="st4" d="M194.3,59.2c0-21-54.7-24.7-66.5-24-12.9.1-65.9,3-65.9,24s8.4,31.8,63.5,32.6h5.5c55.1-.8,63.5-25.5,63.5-32.6Z"/>
      <path class="st21" d="M172.3,58l-1.9-21.1c-.6-9.1-6.1-17.3-14.4-21.1-5.8-2.7-14-4.9-25.1-5.3h0c-.7,0-1.5,0-2.2,0-.7,0-1.4,0-2.2,0h0c-11.2.6-19.3,2.8-25.1,5.4-8.3,3.8-13.8,12-14.4,21.1l-1.9,21.1c2.4,10.1,36.4,12.6,43.6,12.6s40.7-1.9,43.6-12.6Z"/>
      <path class="st16" d="M103,41.8c.6-9,1.1-18.1,6.4-25.8,1.1-1.7,2.5-3.1,4.1-4.2-4.8,1-8.8,2.3-12.1,3.8-8.3,3.8-13.8,12-14.4,21.1l-1.9,21.1c1.1,4.6,8.6,7.6,17.2,9.5,0-8.6.2-17.1.8-25.7Z"/>
      <path class="st16" d="M170.4,36.8c-.6-9.1-6.1-17.3-14.4-21.1-3-1.4-6.6-2.6-10.9-3.6,2.8,2.8,4.9,6.1,5.8,10.6,1.2,5.8,1.1,12.1,1.4,18,.4,9.1.1,18.2,0,27.4,9.6-1.8,18.6-4.9,20-10.1l-1.9-21.1Z"/>
      <path class="st23" d="M158.2,22c0,5.1-13.2,8.2-29.5,8.2s-29.5-3.1-29.5-8.2,13.2-9.2,29.5-9.2,29.5,4.1,29.5,9.2Z"/>
      <path class="st9" d="M130.8,10.3h0c11.2.6,19.3,2.8,25.1,5.4,8.3,3.8,13.8,12,14.4,21.1l.7,3.6c12.7,3.6,23.2,9.5,23.2,18.7s-8.4,31.8-63.5,32.6h-5.5c-55.1-.8-63.5-25.8-63.5-32.6s11.1-15.4,24.4-18.9l.7-3.4c.6-9.1,6.1-17.3,14.4-21.1,5.8-2.7,14-4.9,25.1-5.3h0c.7,0,1.5,0,2.2,0,.7,0,1.4,0,2.2,0M130.8,6c-.7,0-1.5,0-2.2,0-.7,0-1.4,0-2.2,0s-.7,0-1.1.1c-10,.5-18.7,2.4-25.8,5.7-9.6,4.4-16.1,13.7-16.9,24.4v.6c-16.7,4.8-25.1,12.3-25.1,22.3s3.3,14.4,12.7,21.9c12,9.6,30.5,14.6,55,15,0,0,0,0,0,0h5.5s0,0,0,0c24.5-.3,43-5.4,55-14.9,12.1-9.6,12.7-20,12.7-22,0-9.6-8-17-23.7-22l-.2-.9c-.8-10.7-7.3-20-16.9-24.4-7.2-3.3-15.8-5.2-25.8-5.7-.3,0-.7-.1-1.1-.1h0Z"/>
      <path class="st28" d="M85.6,47.4l-.5,10.6c2.4,10.1,36.4,12.6,43.6,12.6s40.7-1.9,43.6-12.6l-.7-10.6c-3,1.2-38.8,17-86,0Z"/>
      <path class="st2" d="M172.3,59.2l-1.9-21.1c-.6-9.1-6.1-17.3-14.4-21.1-5.8-2.7-14-4.9-25.1-5.3h0c-.7,0-1.5,0-2.2,0-.7,0-1.4,0-2.2,0h0c-11.2.6-19.3,2.8-25.1,5.4-8.3,3.8-13.8,12-14.4,21.1l-1.9,21.1c2.4,10.1,36.4,12.6,43.6,12.6s40.7-1.9,43.6-12.6Z"/>
    </g>
    <g>
      <g>
        <path class="st17" d="M28.1,121.9c0,22.5,19.8,40.7,36.9,40.7,17.2,0,36.7-18.2,36.7-40.7,0-22.5-19.5-40.7-36.7-40.7-17.2,0-36.9,18.2-36.9,40.7Z"/>
        <g class="st24">
          <path class="st27" d="M38.4,128.9c0,14.5,14.8,26.3,27.6,26.3,12.8,0,25.8-12.4,25.8-26.9s-13-25.8-25.8-25.8-27.6,11.8-27.6,26.3Z"/>
        </g>
      </g>
      <g>
        <path class="st9" d="M66.3,92.6c-13-1.6-25.2,8.4-27.2,24.2-2,15.8,6.7,28.5,20.3,30.3,13,1.7,24.9-8.5,26.9-24.3s-7.8-28.7-20-30.2Z"/>
        <path class="st7" d="M28.8,122.5c0,22.5,19.8,40.7,36.9,40.7,17.2,0,36.7-18.2,36.7-40.7s-19.5-40.7-36.7-40.7c-17.2,0-36.9,18.2-36.9,40.7Z"/>
        <path class="st12" d="M78.8,130.8c-3.9,8.4-13.9,12.8-22.4,9.9-8.5-3-14.5-13.5-10.6-22,3.9-8.4,10-.9,18.5,2.1,8.5,3,18.3,1.6,14.4,10Z"/>
      </g>
    </g>
    <g>
      <g>
        <path class="st17" d="M233.9,117.9c0,22.5-19.8,40.7-36.9,40.7-17.2,0-36.7-18.2-36.7-40.7,0-22.5,19.5-40.7,36.7-40.7,17.2,0,36.9,18.2,36.9,40.7Z"/>
        <g class="st24">
          <path class="st27" d="M171.3,124.9c0,14.5,12.8,26.3,25.6,26.3,12.8,0,27.4-11.8,27.4-26.3,0-14.5-14.6-26.3-27.4-26.3s-25.6,11.8-25.6,26.3Z"/>
        </g>
      </g>
      <g>
        <path class="st9" d="M195.8,88.6c13-1.6,25.2,8.4,27.2,24.2s-6.7,28.5-20.3,30.3c-13,1.7-24.9-8.5-26.9-24.3-2-15.8,7.8-28.7,20-30.2Z"/>
        <path class="st7" d="M233.3,118.5c0,22.5-19.8,40.7-36.9,40.7-17.2,0-36.7-18.2-36.7-40.7,0-22.5,19.5-40.7,36.7-40.7,17.2,0,36.9,18.2,36.9,40.7Z"/>
      </g>
    </g>
    <g>
      <path class="st18" d="M140,167.9c6.6-11.6,12.7-14.2,17-11.8,5,2.8,4.7,12.2-8.4,11,0,.2-.1,0-.3.1-2.9,3.9-7,2.3-8.3.7Z"/>
      <path class="st5" d="M141.8,166s4.9-7.7,10.6-8.6,1.1,4.3-4.3,4.3"/>
    </g>
    <path class="st26" d="M146.3,133.3c-2.6-2.8-7.1-6.4-11.3-7.6-.4-.1-4.2-1.1-8.4,0-3.9,1-8.4,4.7-11.3,7.8-3.9,4.2-8.7,11.7-8,13.2.1.3.4.4.7.4,7.4-.6,11.1,2.5,14.9,6,.8.7,1.7,1.6,2.5,2.4,3.2,3.1,7.1,2.5,10,0,1.1-.9,2.1-1.8,3.1-2.7,3.9-3.5,7.5-6.5,14.9-5.8.3,0,.6-.1.7-.4.7-1.5-4-8.9-8-13.2Z"/>
    <path class="st3" d="M35.9,175.6l-7.7,10.3s10.3,5.8,18.3,7.3c10.1,2,21.4,2.7,30.2,1.9,18.4-1.7,38.9-9,53.2-9h4.7c11.6,0,29.5,3.1,47.7,6,9.7,1.5,22.4,2.4,32.2,0,7.8-1.9,19.3-7.3,19.3-7.3.3,1.1-7.8-11.3-7.8-11.3"/>
    <path class="st1" d="M86.9,43.6c2.3,9.5,34.3,11.9,41.1,11.9s38.4-1.8,41.1-11.9"/>
    <path class="st20" d="M71.9,114.4c-2.8,6.1-10.1,9.3-16.2,7.1-6.1-2.2-8.8-8.9-6-15,2.8-6.1,10.1-9.3,16.2-7.1s8.8,8.9,6,15Z"/>
    <path class="st12" d="M183.2,127.1c3.9,8.4,13.9,12.8,22.4,9.9,8.5-3,16.2-13.2,12.3-21.7-3.9-8.4-12.1-1.6-20.5,1.4-8.5,3-18,2-14.1,10.4Z"/>
    <path class="st20" d="M190.1,110.4c2.8,6.1,10.1,9.3,16.2,7.1,6.1-2.2,8.8-8.9,6-15-2.8-6.1-10.1-9.3-16.2-7.1-6.1,2.2-8.8,8.9-6,15Z"/>
    <path class="st10" d="M197.9,233.9c6.1-3.1,11.8-6.9,17.1-11.1-3.4-5.1-9.8-8.5-17.2-8.5-10.9,0-19.7,7.5-19.7,16.6s1.4,7,3.8,9.8c5-3.1,10.7-4.1,16-6.8Z"/>
    <ellipse class="st10" cx="108" cy="219.4" rx="11.4" ry="9.6"/>
    <path class="st10" d="M42.8,218.8c.8.7,1.5,1.5,2.2,2.3,7.3,7,16.6,11.6,25.9,15.5,3.7-2.8,6.1-6.9,6.1-11.4,0-8.5-8.1-15.4-18.2-15.4s-13.5,3.6-16.4,8.7c.1.1.2.2.3.3Z"/>
    <path class="st25" d="M135.4,128.7c-6.8-2.1-14.4.9-17.3,7.3,1.7,1.1,3.2,2.4,4.7,3.8.8.7,1.7,1.6,2.5,2.4,3.2,3.1,7.1,2.5,10,0,1.1-.9,2.1-1.8,3.1-2.7,1.6-1.5,3.2-2.8,5-3.9-2.3-3.4-4.9-5.8-8.1-6.8Z"/>
    <path class="st18" d="M97,159.1c.6-.5,1.5,0,1.3.8-.5,2.1-.6,5.1,1.6,7.8,1.3,1.6,3.1,2.4,4.8,2.8s.8,1.4,0,1.5c-3.9.5-8.4.3-10.4-2.8s.4-7.9,2.8-10.1Z"/>
    <path class="st18" d="M166.8,158.9c-.6-.5-1.5,0-1.3.8.5,2.1.6,5.1-1.6,7.8s-3.1,2.4-4.8,2.8c-.8.2-.8,1.4,0,1.5,3.9.5,8.4.3,10.4-2.8,2.6-4-.4-7.9-2.8-10.1Z"/>
    <g>
      <g>
        <path class="st14" d="M92,282.7c-3.7,0-7-.5-9.7-1.5-1.4-.5-2.5-1.7-3-3.2-1-3.4,1.6-8,3.4-10.6-2.2-6-.4-10.6,1.7-13.2-.9-3.5-1.8-9,.2-12.2.9-1.4,2.2-2.3,3.8-2.6.9-.1,1.8-.2,2.8-.2,14,0,33.1,17,34,17.7.7.7,1.2,1.6,1.2,2.6v12.3c.1,1.4-.7,2.7-2,3.2-.7.3-17.9,7.7-32.2,7.7h0Z"/>
        <path class="st9" d="M91.1,242.6c12.8,0,31.6,16.8,31.6,16.8v12.3c0,0-17,7.4-30.7,7.4s-6-.4-8.5-1.3c-2.2-.8-.1-5.6,2.7-9.4.3-.4.5-.7.5-.7-4.1-8.5,1.6-12.6,1.6-12.6,0,0-3.6-11.7.6-12.4.7-.1,1.4-.2,2.2-.2M91.1,235.6c-1.1,0-2.3,0-3.3.3-2.6.4-4.8,1.9-6.2,4.2-2.2,3.6-1.9,8.8-.9,13.3-2,3.2-3.3,7.7-1.8,13.4-3.6,5.7-3.6,9.7-2.9,12.1.8,2.6,2.6,4.6,5.1,5.5,3.1,1.1,6.8,1.7,10.9,1.7,15,0,32.8-7.7,33.6-8,2.6-1.1,4.2-3.7,4.2-6.5v-12.3c-.1-2-1-3.9-2.4-5.2-2.1-1.9-21.2-18.6-36.3-18.6h0Z"/>
      </g>
      <path class="st28" d="M119.2,269.6v-8.7c-3.4-2.9-17.3-14.1-26.6-14.1s-.9,0-1.4,0c-.5,1.1,0,5,1,8.4l.5,1.6-1.3,1c-.3.3-3.5,2.9-.8,8.6l.4.9-.4,1c0,.1-.3.6-.7,1.2-1.7,2.3-2.6,4.3-2.8,5.3,1.8.5,3.9.8,6.3.8,9.8,0,21.8-4.4,25.8-6Z"/>
      <g>
        <path class="st14" d="M167.2,282.7c-14.3,0-31.5-7.4-32.2-7.7-1.3-.6-2.1-1.8-2.1-3.2v-12.3c.1-1,.5-1.9,1.3-2.6.8-.7,19.9-17.7,34-17.7s1.9,0,2.8.2c1.6.3,2.9,1.2,3.8,2.6,1.9,3.2,1.1,8.7.2,12.2,2.1,2.6,3.9,7.2,1.7,13.2,1.8,2.6,4.4,7.2,3.4,10.6-.4,1.5-1.5,2.7-3,3.2-2.7,1-6,1.5-9.7,1.5Z"/>
        <path class="st9" d="M168.1,242.6c.7,0,1.5,0,2.2.2,4.2.7.6,12.4.6,12.4,0,0,5.7,4.1,1.6,12.6,0,0,.1.3.5.7,2.9,3.8,4.9,8.6,2.7,9.4-2.5.9-5.4,1.3-8.5,1.3-13.7,0-30.8-7.4-30.8-7.4v-12.3c0,0,18.9-16.8,31.7-16.8M168.1,235.6v7-7h0c-15.1,0-34.2,16.7-36.3,18.6-1.5,1.3-2.3,3.2-2.3,5.2v12.3c-.1,2.8,1.5,5.4,4.1,6.5.8.3,18.6,8,33.6,8s7.8-.6,10.9-1.7c2.5-.9,4.4-2.9,5.1-5.5.7-2.4.7-6.4-2.9-12.1,1.5-5.6.2-10.2-1.8-13.4,1-4.6,1.3-9.7-.9-13.3-1.4-2.3-3.6-3.8-6.2-4.2-1.1-.2-2.2-.3-3.3-.3h0Z"/>
      </g>
      <path class="st28" d="M140.1,269.6v-8.7c3.4-2.9,17.3-14.1,26.6-14.1.5,0,.9,0,1.4,0,.5,1.1,0,5-1,8.4l-.5,1.6,1.3,1c.3.3,3.5,2.9.8,8.6l-.4.9.4,1c0,.1.3.6.7,1.2,1.7,2.3,2.6,4.3,2.8,5.3-1.8.5-3.9.8-6.3.8-9.8,0-21.8-4.4-25.8-6Z"/>
      <path class="st6" d="M105.3,258.2s8.1,5.4,7.7,5.4-8.3,5.2-8.3,5.2"/>
      <path class="st6" d="M155.7,258.2s-8.1,5.4-7.7,5.4,8.3,5.2,8.3,5.2"/>
      <g>
        <path class="st9" d="M129.4,251.9c8.6,0,12.7,4.6,12.7,12.4s-4.1,13.3-12.7,13.3-12.7-5.5-12.7-13.3,4.1-12.4,12.7-12.4M129.4,244.9c-12.2,0-19.7,7.5-19.7,19.4s7.7,20.3,19.7,20.3,19.7-8,19.7-20.3-7.5-19.4-19.7-19.4h0Z"/>
        <path class="st28" d="M142.1,264.3c0,7.8-4.1,13.3-12.7,13.3s-12.7-5.5-12.7-13.3,4.1-12.4,12.7-12.4,12.7,4.6,12.7,12.4Z"/>
      </g>
    </g>
    <path class="st0" d="M68.2,79.4c6.7-1.5,13.8.9,19.1,5.1s9.1,10.2,12,16.4c3.4,7.2,5.8,14.9,7.1,22.8"/>
  </g>
</svg>